<mxfile host="app.diagrams.net" agent="Mozilla/5.0 (Windows NT 10.0; Win64; x64) AppleWebKit/537.36 (KHTML, like Gecko) Chrome/128.0.0.0 Safari/537.36 OPR/114.0.0.0" version="24.8.9">
  <diagram name="PÃ¡gina-1" id="e_SijzaYXNK8hy5i12vw">
    <mxGraphModel dx="3069" dy="1302" grid="1" gridSize="10" guides="1" tooltips="1" connect="1" arrows="1" fold="1" page="1" pageScale="1" pageWidth="827" pageHeight="1169" math="0" shadow="0">
      <root>
        <mxCell id="0" />
        <mxCell id="1" parent="0" />
        <mxCell id="vcTBE_vuHNgua-nWtFjC-152" value="solicitud de comentario por habitacion" style="edgeStyle=orthogonalEdgeStyle;rounded=0;orthogonalLoop=1;jettySize=auto;html=1;exitX=1;exitY=0.25;exitDx=0;exitDy=0;exitPerimeter=0;" edge="1" parent="1" source="vcTBE_vuHNgua-nWtFjC-1" target="vcTBE_vuHNgua-nWtFjC-10">
          <mxGeometry x="-0.0729" relative="1" as="geometry">
            <mxPoint x="1160" y="630" as="targetPoint" />
            <Array as="points">
              <mxPoint x="1160" y="160" />
            </Array>
            <mxPoint x="-1" as="offset" />
          </mxGeometry>
        </mxCell>
        <mxCell id="vcTBE_vuHNgua-nWtFjC-1" value="&lt;div&gt;comment-api-{stage}&lt;/div&gt;comment_getByRoom" style="sketch=0;points=[[0,0,0],[0.25,0,0],[0.5,0,0],[0.75,0,0],[1,0,0],[0,1,0],[0.25,1,0],[0.5,1,0],[0.75,1,0],[1,1,0],[0,0.25,0],[0,0.5,0],[0,0.75,0],[1,0.25,0],[1,0.5,0],[1,0.75,0]];outlineConnect=0;fontColor=#232F3E;fillColor=#ED7100;strokeColor=#ffffff;dashed=0;verticalLabelPosition=bottom;verticalAlign=top;align=center;html=1;fontSize=12;fontStyle=1;aspect=fixed;shape=mxgraph.aws4.resourceIcon;resIcon=mxgraph.aws4.lambda;" vertex="1" parent="1">
          <mxGeometry x="470" y="140" width="78" height="78" as="geometry" />
        </mxCell>
        <mxCell id="vcTBE_vuHNgua-nWtFjC-85" value="token" style="edgeStyle=orthogonalEdgeStyle;rounded=0;orthogonalLoop=1;jettySize=auto;html=1;entryX=0;entryY=0;entryDx=0;entryDy=0;entryPerimeter=0;" edge="1" parent="1" source="vcTBE_vuHNgua-nWtFjC-3" target="vcTBE_vuHNgua-nWtFjC-12">
          <mxGeometry relative="1" as="geometry">
            <mxPoint x="790" y="400" as="targetPoint" />
          </mxGeometry>
        </mxCell>
        <mxCell id="vcTBE_vuHNgua-nWtFjC-3" value="&lt;div&gt;comment-api-{stage}&lt;/div&gt;comment_getByUser" style="sketch=0;points=[[0,0,0],[0.25,0,0],[0.5,0,0],[0.75,0,0],[1,0,0],[0,1,0],[0.25,1,0],[0.5,1,0],[0.75,1,0],[1,1,0],[0,0.25,0],[0,0.5,0],[0,0.75,0],[1,0.25,0],[1,0.5,0],[1,0.75,0]];outlineConnect=0;fontColor=#232F3E;fillColor=#ED7100;strokeColor=#ffffff;dashed=0;verticalLabelPosition=bottom;verticalAlign=top;align=center;html=1;fontSize=12;fontStyle=1;aspect=fixed;shape=mxgraph.aws4.resourceIcon;resIcon=mxgraph.aws4.lambda;" vertex="1" parent="1">
          <mxGeometry x="470" y="260" width="78" height="78" as="geometry" />
        </mxCell>
        <mxCell id="vcTBE_vuHNgua-nWtFjC-4" value="&lt;div&gt;comment-api-{stage}&lt;/div&gt;comment_update" style="sketch=0;points=[[0,0,0],[0.25,0,0],[0.5,0,0],[0.75,0,0],[1,0,0],[0,1,0],[0.25,1,0],[0.5,1,0],[0.75,1,0],[1,1,0],[0,0.25,0],[0,0.5,0],[0,0.75,0],[1,0.25,0],[1,0.5,0],[1,0.75,0]];outlineConnect=0;fontColor=#232F3E;fillColor=#ED7100;strokeColor=#ffffff;dashed=0;verticalLabelPosition=bottom;verticalAlign=top;align=center;html=1;fontSize=12;fontStyle=1;aspect=fixed;shape=mxgraph.aws4.resourceIcon;resIcon=mxgraph.aws4.lambda;" vertex="1" parent="1">
          <mxGeometry x="470" y="380" width="78" height="78" as="geometry" />
        </mxCell>
        <mxCell id="vcTBE_vuHNgua-nWtFjC-5" value="&lt;div&gt;comment-api-{stage}&lt;/div&gt;comment_delete" style="sketch=0;points=[[0,0,0],[0.25,0,0],[0.5,0,0],[0.75,0,0],[1,0,0],[0,1,0],[0.25,1,0],[0.5,1,0],[0.75,1,0],[1,1,0],[0,0.25,0],[0,0.5,0],[0,0.75,0],[1,0.25,0],[1,0.5,0],[1,0.75,0]];outlineConnect=0;fontColor=#232F3E;fillColor=#ED7100;strokeColor=#ffffff;dashed=0;verticalLabelPosition=bottom;verticalAlign=top;align=center;html=1;fontSize=12;fontStyle=1;aspect=fixed;shape=mxgraph.aws4.resourceIcon;resIcon=mxgraph.aws4.lambda;" vertex="1" parent="1">
          <mxGeometry x="470" y="500" width="78" height="78" as="geometry" />
        </mxCell>
        <mxCell id="vcTBE_vuHNgua-nWtFjC-89" value="token" style="edgeStyle=orthogonalEdgeStyle;rounded=0;orthogonalLoop=1;jettySize=auto;html=1;entryX=0;entryY=0.75;entryDx=0;entryDy=0;entryPerimeter=0;" edge="1" parent="1" source="vcTBE_vuHNgua-nWtFjC-6" target="vcTBE_vuHNgua-nWtFjC-12">
          <mxGeometry relative="1" as="geometry">
            <mxPoint x="790" y="460" as="targetPoint" />
            <Array as="points">
              <mxPoint x="730" y="669" />
              <mxPoint x="730" y="460" />
              <mxPoint x="880" y="460" />
            </Array>
          </mxGeometry>
        </mxCell>
        <mxCell id="vcTBE_vuHNgua-nWtFjC-6" value="&lt;div&gt;comment-api-{stage}&lt;/div&gt;comment_create" style="sketch=0;points=[[0,0,0],[0.25,0,0],[0.5,0,0],[0.75,0,0],[1,0,0],[0,1,0],[0.25,1,0],[0.5,1,0],[0.75,1,0],[1,1,0],[0,0.25,0],[0,0.5,0],[0,0.75,0],[1,0.25,0],[1,0.5,0],[1,0.75,0]];outlineConnect=0;fontColor=#232F3E;fillColor=#ED7100;strokeColor=#ffffff;dashed=0;verticalLabelPosition=bottom;verticalAlign=top;align=center;html=1;fontSize=12;fontStyle=1;aspect=fixed;shape=mxgraph.aws4.resourceIcon;resIcon=mxgraph.aws4.lambda;" vertex="1" parent="1">
          <mxGeometry x="470" y="630" width="78" height="78" as="geometry" />
        </mxCell>
        <mxCell id="vcTBE_vuHNgua-nWtFjC-9" value="api-comment-{stage}" style="sketch=0;points=[[0,0,0],[0.25,0,0],[0.5,0,0],[0.75,0,0],[1,0,0],[0,1,0],[0.25,1,0],[0.5,1,0],[0.75,1,0],[1,1,0],[0,0.25,0],[0,0.5,0],[0,0.75,0],[1,0.25,0],[1,0.5,0],[1,0.75,0]];outlineConnect=0;fontColor=#232F3E;fillColor=#E7157B;strokeColor=#ffffff;dashed=0;verticalLabelPosition=bottom;verticalAlign=top;align=center;html=1;fontSize=12;fontStyle=0;aspect=fixed;shape=mxgraph.aws4.resourceIcon;resIcon=mxgraph.aws4.api_gateway;" vertex="1" parent="1">
          <mxGeometry x="-190" y="385" width="68" height="68" as="geometry" />
        </mxCell>
        <mxCell id="vcTBE_vuHNgua-nWtFjC-10" value="{stage}-hotel-comments" style="sketch=0;points=[[0,0,0],[0.25,0,0],[0.5,0,0],[0.75,0,0],[1,0,0],[0,1,0],[0.25,1,0],[0.5,1,0],[0.75,1,0],[1,1,0],[0,0.25,0],[0,0.5,0],[0,0.75,0],[1,0.25,0],[1,0.5,0],[1,0.75,0]];outlineConnect=0;fontColor=#232F3E;fillColor=#C925D1;strokeColor=#ffffff;dashed=0;verticalLabelPosition=bottom;verticalAlign=top;align=center;html=1;fontSize=12;fontStyle=0;aspect=fixed;shape=mxgraph.aws4.resourceIcon;resIcon=mxgraph.aws4.dynamodb;" vertex="1" parent="1">
          <mxGeometry x="1100" y="640" width="78" height="78" as="geometry" />
        </mxCell>
        <mxCell id="vcTBE_vuHNgua-nWtFjC-12" value="user-api-{stage}&lt;div&gt;hotel_validateUserToken&lt;/div&gt;" style="sketch=0;points=[[0,0,0],[0.25,0,0],[0.5,0,0],[0.75,0,0],[1,0,0],[0,1,0],[0.25,1,0],[0.5,1,0],[0.75,1,0],[1,1,0],[0,0.25,0],[0,0.5,0],[0,0.75,0],[1,0.25,0],[1,0.5,0],[1,0.75,0]];outlineConnect=0;fontColor=#232F3E;fillColor=#ED7100;strokeColor=#ffffff;dashed=0;verticalLabelPosition=bottom;verticalAlign=top;align=center;html=1;fontSize=12;fontStyle=1;aspect=fixed;shape=mxgraph.aws4.resourceIcon;resIcon=mxgraph.aws4.lambda;" vertex="1" parent="1">
          <mxGeometry x="880" y="400" width="78" height="78" as="geometry" />
        </mxCell>
        <mxCell id="vcTBE_vuHNgua-nWtFjC-22" value="hotel-api-{stage}&lt;div&gt;&lt;/div&gt;&lt;div&gt;hotel_readByTenant&lt;/div&gt;" style="sketch=0;points=[[0,0,0],[0.25,0,0],[0.5,0,0],[0.75,0,0],[1,0,0],[0,1,0],[0.25,1,0],[0.5,1,0],[0.75,1,0],[1,1,0],[0,0.25,0],[0,0.5,0],[0,0.75,0],[1,0.25,0],[1,0.5,0],[1,0.75,0]];outlineConnect=0;fontColor=#232F3E;fillColor=#ED7100;strokeColor=#ffffff;dashed=0;verticalLabelPosition=bottom;verticalAlign=top;align=center;html=1;fontSize=12;fontStyle=1;aspect=fixed;shape=mxgraph.aws4.resourceIcon;resIcon=mxgraph.aws4.lambda;" vertex="1" parent="1">
          <mxGeometry x="470" y="1020" width="78" height="78" as="geometry" />
        </mxCell>
        <mxCell id="vcTBE_vuHNgua-nWtFjC-23" value="hotel-api-{stage}&lt;div&gt;&lt;/div&gt;&lt;div&gt;hotel_readByTenantAndName&lt;/div&gt;&lt;div&gt;&lt;/div&gt;" style="sketch=0;points=[[0,0,0],[0.25,0,0],[0.5,0,0],[0.75,0,0],[1,0,0],[0,1,0],[0.25,1,0],[0.5,1,0],[0.75,1,0],[1,1,0],[0,0.25,0],[0,0.5,0],[0,0.75,0],[1,0.25,0],[1,0.5,0],[1,0.75,0]];outlineConnect=0;fontColor=#232F3E;fillColor=#ED7100;strokeColor=#ffffff;dashed=0;verticalLabelPosition=bottom;verticalAlign=top;align=center;html=1;fontSize=12;fontStyle=1;aspect=fixed;shape=mxgraph.aws4.resourceIcon;resIcon=mxgraph.aws4.lambda;" vertex="1" parent="1">
          <mxGeometry x="470" y="1140" width="78" height="78" as="geometry" />
        </mxCell>
        <mxCell id="vcTBE_vuHNgua-nWtFjC-24" value="hotel-api-{stage}&lt;div&gt;&lt;/div&gt;&lt;div&gt;hotel_update&lt;/div&gt;&lt;div&gt;&lt;/div&gt;" style="sketch=0;points=[[0,0,0],[0.25,0,0],[0.5,0,0],[0.75,0,0],[1,0,0],[0,1,0],[0.25,1,0],[0.5,1,0],[0.75,1,0],[1,1,0],[0,0.25,0],[0,0.5,0],[0,0.75,0],[1,0.25,0],[1,0.5,0],[1,0.75,0]];outlineConnect=0;fontColor=#232F3E;fillColor=#ED7100;strokeColor=#ffffff;dashed=0;verticalLabelPosition=bottom;verticalAlign=top;align=center;html=1;fontSize=12;fontStyle=1;aspect=fixed;shape=mxgraph.aws4.resourceIcon;resIcon=mxgraph.aws4.lambda;" vertex="1" parent="1">
          <mxGeometry x="470" y="1260" width="78" height="78" as="geometry" />
        </mxCell>
        <mxCell id="vcTBE_vuHNgua-nWtFjC-25" value="hotel-api-{stage}&lt;div&gt;&lt;/div&gt;&lt;div&gt;hotel_delete&lt;/div&gt;&lt;div&gt;&lt;/div&gt;" style="sketch=0;points=[[0,0,0],[0.25,0,0],[0.5,0,0],[0.75,0,0],[1,0,0],[0,1,0],[0.25,1,0],[0.5,1,0],[0.75,1,0],[1,1,0],[0,0.25,0],[0,0.5,0],[0,0.75,0],[1,0.25,0],[1,0.5,0],[1,0.75,0]];outlineConnect=0;fontColor=#232F3E;fillColor=#ED7100;strokeColor=#ffffff;dashed=0;verticalLabelPosition=bottom;verticalAlign=top;align=center;html=1;fontSize=12;fontStyle=1;aspect=fixed;shape=mxgraph.aws4.resourceIcon;resIcon=mxgraph.aws4.lambda;" vertex="1" parent="1">
          <mxGeometry x="470" y="1380" width="78" height="78" as="geometry" />
        </mxCell>
        <mxCell id="vcTBE_vuHNgua-nWtFjC-26" value="hotel-api-{stage}&lt;div&gt;&lt;/div&gt;&lt;div&gt;hotel_create&lt;/div&gt;" style="sketch=0;points=[[0,0,0],[0.25,0,0],[0.5,0,0],[0.75,0,0],[1,0,0],[0,1,0],[0.25,1,0],[0.5,1,0],[0.75,1,0],[1,1,0],[0,0.25,0],[0,0.5,0],[0,0.75,0],[1,0.25,0],[1,0.5,0],[1,0.75,0]];outlineConnect=0;fontColor=#232F3E;fillColor=#ED7100;strokeColor=#ffffff;dashed=0;verticalLabelPosition=bottom;verticalAlign=top;align=center;html=1;fontSize=12;fontStyle=1;aspect=fixed;shape=mxgraph.aws4.resourceIcon;resIcon=mxgraph.aws4.lambda;" vertex="1" parent="1">
          <mxGeometry x="470" y="1510" width="78" height="78" as="geometry" />
        </mxCell>
        <mxCell id="vcTBE_vuHNgua-nWtFjC-27" value="hotel-api-{stage}&lt;div&gt;&lt;/div&gt;&lt;div&gt;hotel_read&lt;/div&gt;&lt;div&gt;&lt;/div&gt;" style="sketch=0;points=[[0,0,0],[0.25,0,0],[0.5,0,0],[0.75,0,0],[1,0,0],[0,1,0],[0.25,1,0],[0.5,1,0],[0.75,1,0],[1,1,0],[0,0.25,0],[0,0.5,0],[0,0.75,0],[1,0.25,0],[1,0.5,0],[1,0.75,0]];outlineConnect=0;fontColor=#232F3E;fillColor=#ED7100;strokeColor=#ffffff;dashed=0;verticalLabelPosition=bottom;verticalAlign=top;align=center;html=1;fontSize=12;fontStyle=1;aspect=fixed;shape=mxgraph.aws4.resourceIcon;resIcon=mxgraph.aws4.lambda;" vertex="1" parent="1">
          <mxGeometry x="470" y="1640" width="78" height="78" as="geometry" />
        </mxCell>
        <mxCell id="vcTBE_vuHNgua-nWtFjC-220" style="edgeStyle=orthogonalEdgeStyle;rounded=0;orthogonalLoop=1;jettySize=auto;html=1;" edge="1" parent="1" source="vcTBE_vuHNgua-nWtFjC-28" target="vcTBE_vuHNgua-nWtFjC-24">
          <mxGeometry relative="1" as="geometry">
            <Array as="points">
              <mxPoint x="20" y="1344" />
              <mxPoint x="20" y="1299" />
            </Array>
          </mxGeometry>
        </mxCell>
        <mxCell id="vcTBE_vuHNgua-nWtFjC-228" value="PUT/hotel/{tenant_id}/{hotel_id}" style="edgeLabel;html=1;align=center;verticalAlign=middle;resizable=0;points=[];" vertex="1" connectable="0" parent="vcTBE_vuHNgua-nWtFjC-220">
          <mxGeometry x="-0.0097" y="-2" relative="1" as="geometry">
            <mxPoint x="41" y="-2" as="offset" />
          </mxGeometry>
        </mxCell>
        <mxCell id="vcTBE_vuHNgua-nWtFjC-28" value="api-hotel-{stage}" style="sketch=0;points=[[0,0,0],[0.25,0,0],[0.5,0,0],[0.75,0,0],[1,0,0],[0,1,0],[0.25,1,0],[0.5,1,0],[0.75,1,0],[1,1,0],[0,0.25,0],[0,0.5,0],[0,0.75,0],[1,0.25,0],[1,0.5,0],[1,0.75,0]];outlineConnect=0;fontColor=#232F3E;fillColor=#E7157B;strokeColor=#ffffff;dashed=0;verticalLabelPosition=bottom;verticalAlign=top;align=center;html=1;fontSize=12;fontStyle=0;aspect=fixed;shape=mxgraph.aws4.resourceIcon;resIcon=mxgraph.aws4.api_gateway;" vertex="1" parent="1">
          <mxGeometry x="-170" y="1310" width="68" height="68" as="geometry" />
        </mxCell>
        <mxCell id="vcTBE_vuHNgua-nWtFjC-29" value="{stage}-hotel-hotels" style="sketch=0;points=[[0,0,0],[0.25,0,0],[0.5,0,0],[0.75,0,0],[1,0,0],[0,1,0],[0.25,1,0],[0.5,1,0],[0.75,1,0],[1,1,0],[0,0.25,0],[0,0.5,0],[0,0.75,0],[1,0.25,0],[1,0.5,0],[1,0.75,0]];outlineConnect=0;fontColor=#232F3E;fillColor=#C925D1;strokeColor=#ffffff;dashed=0;verticalLabelPosition=bottom;verticalAlign=top;align=center;html=1;fontSize=12;fontStyle=0;aspect=fixed;shape=mxgraph.aws4.resourceIcon;resIcon=mxgraph.aws4.dynamodb;" vertex="1" parent="1">
          <mxGeometry x="920" y="1320" width="120" height="120" as="geometry" />
        </mxCell>
        <mxCell id="vcTBE_vuHNgua-nWtFjC-31" value="&lt;div&gt;payment-api-{stage}&lt;/div&gt;&lt;div&gt;payment_getByUserAndTenantId&lt;/div&gt;" style="sketch=0;points=[[0,0,0],[0.25,0,0],[0.5,0,0],[0.75,0,0],[1,0,0],[0,1,0],[0.25,1,0],[0.5,1,0],[0.75,1,0],[1,1,0],[0,0.25,0],[0,0.5,0],[0,0.75,0],[1,0.25,0],[1,0.5,0],[1,0.75,0]];outlineConnect=0;fontColor=#232F3E;fillColor=#ED7100;strokeColor=#ffffff;dashed=0;verticalLabelPosition=bottom;verticalAlign=top;align=center;html=1;fontSize=12;fontStyle=1;aspect=fixed;shape=mxgraph.aws4.resourceIcon;resIcon=mxgraph.aws4.lambda;" vertex="1" parent="1">
          <mxGeometry x="470" y="2290" width="78" height="78" as="geometry" />
        </mxCell>
        <mxCell id="vcTBE_vuHNgua-nWtFjC-32" value="&lt;div&gt;payment-api-{stage}&lt;/div&gt;&lt;div&gt;payment_getById&lt;/div&gt;&lt;div&gt;&lt;/div&gt;" style="sketch=0;points=[[0,0,0],[0.25,0,0],[0.5,0,0],[0.75,0,0],[1,0,0],[0,1,0],[0.25,1,0],[0.5,1,0],[0.75,1,0],[1,1,0],[0,0.25,0],[0,0.5,0],[0,0.75,0],[1,0.25,0],[1,0.5,0],[1,0.75,0]];outlineConnect=0;fontColor=#232F3E;fillColor=#ED7100;strokeColor=#ffffff;dashed=0;verticalLabelPosition=bottom;verticalAlign=top;align=center;html=1;fontSize=12;fontStyle=1;aspect=fixed;shape=mxgraph.aws4.resourceIcon;resIcon=mxgraph.aws4.lambda;" vertex="1" parent="1">
          <mxGeometry x="470" y="2410" width="78" height="78" as="geometry" />
        </mxCell>
        <mxCell id="vcTBE_vuHNgua-nWtFjC-33" value="&lt;div&gt;payment-api-{stage}&lt;/div&gt;&lt;div&gt;payment_getAll&lt;/div&gt;&lt;div&gt;&lt;/div&gt;" style="sketch=0;points=[[0,0,0],[0.25,0,0],[0.5,0,0],[0.75,0,0],[1,0,0],[0,1,0],[0.25,1,0],[0.5,1,0],[0.75,1,0],[1,1,0],[0,0.25,0],[0,0.5,0],[0,0.75,0],[1,0.25,0],[1,0.5,0],[1,0.75,0]];outlineConnect=0;fontColor=#232F3E;fillColor=#ED7100;strokeColor=#ffffff;dashed=0;verticalLabelPosition=bottom;verticalAlign=top;align=center;html=1;fontSize=12;fontStyle=1;aspect=fixed;shape=mxgraph.aws4.resourceIcon;resIcon=mxgraph.aws4.lambda;" vertex="1" parent="1">
          <mxGeometry x="470" y="2530" width="78" height="78" as="geometry" />
        </mxCell>
        <mxCell id="vcTBE_vuHNgua-nWtFjC-34" value="&lt;div&gt;payment-api-{stage}&lt;/div&gt;&lt;div&gt;payment_delete&lt;/div&gt;&lt;div&gt;&lt;/div&gt;" style="sketch=0;points=[[0,0,0],[0.25,0,0],[0.5,0,0],[0.75,0,0],[1,0,0],[0,1,0],[0.25,1,0],[0.5,1,0],[0.75,1,0],[1,1,0],[0,0.25,0],[0,0.5,0],[0,0.75,0],[1,0.25,0],[1,0.5,0],[1,0.75,0]];outlineConnect=0;fontColor=#232F3E;fillColor=#ED7100;strokeColor=#ffffff;dashed=0;verticalLabelPosition=bottom;verticalAlign=top;align=center;html=1;fontSize=12;fontStyle=1;aspect=fixed;shape=mxgraph.aws4.resourceIcon;resIcon=mxgraph.aws4.lambda;" vertex="1" parent="1">
          <mxGeometry x="470" y="2650" width="78" height="78" as="geometry" />
        </mxCell>
        <mxCell id="vcTBE_vuHNgua-nWtFjC-35" value="&lt;div&gt;payment-api-{stage}&lt;/div&gt;&lt;div&gt;payment_create&lt;/div&gt;&lt;div&gt;&lt;/div&gt;" style="sketch=0;points=[[0,0,0],[0.25,0,0],[0.5,0,0],[0.75,0,0],[1,0,0],[0,1,0],[0.25,1,0],[0.5,1,0],[0.75,1,0],[1,1,0],[0,0.25,0],[0,0.5,0],[0,0.75,0],[1,0.25,0],[1,0.5,0],[1,0.75,0]];outlineConnect=0;fontColor=#232F3E;fillColor=#ED7100;strokeColor=#ffffff;dashed=0;verticalLabelPosition=bottom;verticalAlign=top;align=center;html=1;fontSize=12;fontStyle=1;aspect=fixed;shape=mxgraph.aws4.resourceIcon;resIcon=mxgraph.aws4.lambda;" vertex="1" parent="1">
          <mxGeometry x="470" y="2780" width="78" height="78" as="geometry" />
        </mxCell>
        <mxCell id="vcTBE_vuHNgua-nWtFjC-37" value="api-payment-{stage}" style="sketch=0;points=[[0,0,0],[0.25,0,0],[0.5,0,0],[0.75,0,0],[1,0,0],[0,1,0],[0.25,1,0],[0.5,1,0],[0.75,1,0],[1,1,0],[0,0.25,0],[0,0.5,0],[0,0.75,0],[1,0.25,0],[1,0.5,0],[1,0.75,0]];outlineConnect=0;fontColor=#232F3E;fillColor=#E7157B;strokeColor=#ffffff;dashed=0;verticalLabelPosition=bottom;verticalAlign=top;align=center;html=1;fontSize=12;fontStyle=0;aspect=fixed;shape=mxgraph.aws4.resourceIcon;resIcon=mxgraph.aws4.api_gateway;" vertex="1" parent="1">
          <mxGeometry x="170" y="2590" width="68" height="68" as="geometry" />
        </mxCell>
        <mxCell id="vcTBE_vuHNgua-nWtFjC-38" value="{stage}-hotel-payments" style="sketch=0;points=[[0,0,0],[0.25,0,0],[0.5,0,0],[0.75,0,0],[1,0,0],[0,1,0],[0.25,1,0],[0.5,1,0],[0.75,1,0],[1,1,0],[0,0.25,0],[0,0.5,0],[0,0.75,0],[1,0.25,0],[1,0.5,0],[1,0.75,0]];outlineConnect=0;fontColor=#232F3E;fillColor=#C925D1;strokeColor=#ffffff;dashed=0;verticalLabelPosition=bottom;verticalAlign=top;align=center;html=1;fontSize=12;fontStyle=0;aspect=fixed;shape=mxgraph.aws4.resourceIcon;resIcon=mxgraph.aws4.dynamodb;" vertex="1" parent="1">
          <mxGeometry x="860" y="2300" width="78" height="78" as="geometry" />
        </mxCell>
        <mxCell id="vcTBE_vuHNgua-nWtFjC-39" value="user-api-{stage}&lt;div&gt;hotel_validateUserToken&lt;/div&gt;" style="sketch=0;points=[[0,0,0],[0.25,0,0],[0.5,0,0],[0.75,0,0],[1,0,0],[0,1,0],[0.25,1,0],[0.5,1,0],[0.75,1,0],[1,1,0],[0,0.25,0],[0,0.5,0],[0,0.75,0],[1,0.25,0],[1,0.5,0],[1,0.75,0]];outlineConnect=0;fontColor=#232F3E;fillColor=#ED7100;strokeColor=#ffffff;dashed=0;verticalLabelPosition=bottom;verticalAlign=top;align=center;html=1;fontSize=12;fontStyle=1;aspect=fixed;shape=mxgraph.aws4.resourceIcon;resIcon=mxgraph.aws4.lambda;" vertex="1" parent="1">
          <mxGeometry x="820" y="2560" width="78" height="78" as="geometry" />
        </mxCell>
        <mxCell id="vcTBE_vuHNgua-nWtFjC-40" value="&lt;div&gt;reservation-api-{stage}&lt;/div&gt;reservation_getAllByTenant&lt;div&gt;&lt;/div&gt;" style="sketch=0;points=[[0,0,0],[0.25,0,0],[0.5,0,0],[0.75,0,0],[1,0,0],[0,1,0],[0.25,1,0],[0.5,1,0],[0.75,1,0],[1,1,0],[0,0.25,0],[0,0.5,0],[0,0.75,0],[1,0.25,0],[1,0.5,0],[1,0.75,0]];outlineConnect=0;fontColor=#232F3E;fillColor=#ED7100;strokeColor=#ffffff;dashed=0;verticalLabelPosition=bottom;verticalAlign=top;align=center;html=1;fontSize=12;fontStyle=1;aspect=fixed;shape=mxgraph.aws4.resourceIcon;resIcon=mxgraph.aws4.lambda;" vertex="1" parent="1">
          <mxGeometry x="470" y="3100" width="78" height="78" as="geometry" />
        </mxCell>
        <mxCell id="vcTBE_vuHNgua-nWtFjC-41" value="&lt;div&gt;reservation-api-{stage}&lt;/div&gt;reservation_getById&lt;div&gt;&lt;/div&gt;" style="sketch=0;points=[[0,0,0],[0.25,0,0],[0.5,0,0],[0.75,0,0],[1,0,0],[0,1,0],[0.25,1,0],[0.5,1,0],[0.75,1,0],[1,1,0],[0,0.25,0],[0,0.5,0],[0,0.75,0],[1,0.25,0],[1,0.5,0],[1,0.75,0]];outlineConnect=0;fontColor=#232F3E;fillColor=#ED7100;strokeColor=#ffffff;dashed=0;verticalLabelPosition=bottom;verticalAlign=top;align=center;html=1;fontSize=12;fontStyle=1;aspect=fixed;shape=mxgraph.aws4.resourceIcon;resIcon=mxgraph.aws4.lambda;" vertex="1" parent="1">
          <mxGeometry x="470" y="3220" width="78" height="78" as="geometry" />
        </mxCell>
        <mxCell id="vcTBE_vuHNgua-nWtFjC-42" value="&lt;div&gt;reservation-api-{stage}&lt;/div&gt;reservation_delete" style="sketch=0;points=[[0,0,0],[0.25,0,0],[0.5,0,0],[0.75,0,0],[1,0,0],[0,1,0],[0.25,1,0],[0.5,1,0],[0.75,1,0],[1,1,0],[0,0.25,0],[0,0.5,0],[0,0.75,0],[1,0.25,0],[1,0.5,0],[1,0.75,0]];outlineConnect=0;fontColor=#232F3E;fillColor=#ED7100;strokeColor=#ffffff;dashed=0;verticalLabelPosition=bottom;verticalAlign=top;align=center;html=1;fontSize=12;fontStyle=1;aspect=fixed;shape=mxgraph.aws4.resourceIcon;resIcon=mxgraph.aws4.lambda;" vertex="1" parent="1">
          <mxGeometry x="470" y="3340" width="78" height="78" as="geometry" />
        </mxCell>
        <mxCell id="vcTBE_vuHNgua-nWtFjC-43" value="&lt;div&gt;reservation-api-{stage}&lt;/div&gt;reservation_getAllByUser&lt;div&gt;&lt;/div&gt;" style="sketch=0;points=[[0,0,0],[0.25,0,0],[0.5,0,0],[0.75,0,0],[1,0,0],[0,1,0],[0.25,1,0],[0.5,1,0],[0.75,1,0],[1,1,0],[0,0.25,0],[0,0.5,0],[0,0.75,0],[1,0.25,0],[1,0.5,0],[1,0.75,0]];outlineConnect=0;fontColor=#232F3E;fillColor=#ED7100;strokeColor=#ffffff;dashed=0;verticalLabelPosition=bottom;verticalAlign=top;align=center;html=1;fontSize=12;fontStyle=1;aspect=fixed;shape=mxgraph.aws4.resourceIcon;resIcon=mxgraph.aws4.lambda;" vertex="1" parent="1">
          <mxGeometry x="470" y="3460" width="78" height="78" as="geometry" />
        </mxCell>
        <mxCell id="vcTBE_vuHNgua-nWtFjC-44" value="&lt;div&gt;reservation-api-{stage}&lt;/div&gt;reservation_update&lt;div&gt;&lt;/div&gt;" style="sketch=0;points=[[0,0,0],[0.25,0,0],[0.5,0,0],[0.75,0,0],[1,0,0],[0,1,0],[0.25,1,0],[0.5,1,0],[0.75,1,0],[1,1,0],[0,0.25,0],[0,0.5,0],[0,0.75,0],[1,0.25,0],[1,0.5,0],[1,0.75,0]];outlineConnect=0;fontColor=#232F3E;fillColor=#ED7100;strokeColor=#ffffff;dashed=0;verticalLabelPosition=bottom;verticalAlign=top;align=center;html=1;fontSize=12;fontStyle=1;aspect=fixed;shape=mxgraph.aws4.resourceIcon;resIcon=mxgraph.aws4.lambda;" vertex="1" parent="1">
          <mxGeometry x="470" y="3590" width="78" height="78" as="geometry" />
        </mxCell>
        <mxCell id="vcTBE_vuHNgua-nWtFjC-45" value="&lt;div&gt;comment-api-{stage}&lt;/div&gt;comment_create" style="sketch=0;points=[[0,0,0],[0.25,0,0],[0.5,0,0],[0.75,0,0],[1,0,0],[0,1,0],[0.25,1,0],[0.5,1,0],[0.75,1,0],[1,1,0],[0,0.25,0],[0,0.5,0],[0,0.75,0],[1,0.25,0],[1,0.5,0],[1,0.75,0]];outlineConnect=0;fontColor=#232F3E;fillColor=#ED7100;strokeColor=#ffffff;dashed=0;verticalLabelPosition=bottom;verticalAlign=top;align=center;html=1;fontSize=12;fontStyle=1;aspect=fixed;shape=mxgraph.aws4.resourceIcon;resIcon=mxgraph.aws4.lambda;" vertex="1" parent="1">
          <mxGeometry x="470" y="3720" width="78" height="78" as="geometry" />
        </mxCell>
        <mxCell id="vcTBE_vuHNgua-nWtFjC-46" value="api-reservation-{stage}" style="sketch=0;points=[[0,0,0],[0.25,0,0],[0.5,0,0],[0.75,0,0],[1,0,0],[0,1,0],[0.25,1,0],[0.5,1,0],[0.75,1,0],[1,1,0],[0,0.25,0],[0,0.5,0],[0,0.75,0],[1,0.25,0],[1,0.5,0],[1,0.75,0]];outlineConnect=0;fontColor=#232F3E;fillColor=#E7157B;strokeColor=#ffffff;dashed=0;verticalLabelPosition=bottom;verticalAlign=top;align=center;html=1;fontSize=12;fontStyle=0;aspect=fixed;shape=mxgraph.aws4.resourceIcon;resIcon=mxgraph.aws4.api_gateway;" vertex="1" parent="1">
          <mxGeometry x="170" y="3400" width="68" height="68" as="geometry" />
        </mxCell>
        <mxCell id="vcTBE_vuHNgua-nWtFjC-47" value="{stage}-hotel-reservations" style="sketch=0;points=[[0,0,0],[0.25,0,0],[0.5,0,0],[0.75,0,0],[1,0,0],[0,1,0],[0.25,1,0],[0.5,1,0],[0.75,1,0],[1,1,0],[0,0.25,0],[0,0.5,0],[0,0.75,0],[1,0.25,0],[1,0.5,0],[1,0.75,0]];outlineConnect=0;fontColor=#232F3E;fillColor=#C925D1;strokeColor=#ffffff;dashed=0;verticalLabelPosition=bottom;verticalAlign=top;align=center;html=1;fontSize=12;fontStyle=0;aspect=fixed;shape=mxgraph.aws4.resourceIcon;resIcon=mxgraph.aws4.dynamodb;" vertex="1" parent="1">
          <mxGeometry x="860" y="3110" width="78" height="78" as="geometry" />
        </mxCell>
        <mxCell id="vcTBE_vuHNgua-nWtFjC-48" value="user-api-{stage}&lt;div&gt;hotel_validateUserToken&lt;/div&gt;" style="sketch=0;points=[[0,0,0],[0.25,0,0],[0.5,0,0],[0.75,0,0],[1,0,0],[0,1,0],[0.25,1,0],[0.5,1,0],[0.75,1,0],[1,1,0],[0,0.25,0],[0,0.5,0],[0,0.75,0],[1,0.25,0],[1,0.5,0],[1,0.75,0]];outlineConnect=0;fontColor=#232F3E;fillColor=#ED7100;strokeColor=#ffffff;dashed=0;verticalLabelPosition=bottom;verticalAlign=top;align=center;html=1;fontSize=12;fontStyle=1;aspect=fixed;shape=mxgraph.aws4.resourceIcon;resIcon=mxgraph.aws4.lambda;" vertex="1" parent="1">
          <mxGeometry x="820" y="3370" width="78" height="78" as="geometry" />
        </mxCell>
        <mxCell id="vcTBE_vuHNgua-nWtFjC-49" value="&lt;div&gt;room-api-{stage}&lt;/div&gt;room_update" style="sketch=0;points=[[0,0,0],[0.25,0,0],[0.5,0,0],[0.75,0,0],[1,0,0],[0,1,0],[0.25,1,0],[0.5,1,0],[0.75,1,0],[1,1,0],[0,0.25,0],[0,0.5,0],[0,0.75,0],[1,0.25,0],[1,0.5,0],[1,0.75,0]];outlineConnect=0;fontColor=#232F3E;fillColor=#ED7100;strokeColor=#ffffff;dashed=0;verticalLabelPosition=bottom;verticalAlign=top;align=center;html=1;fontSize=12;fontStyle=1;aspect=fixed;shape=mxgraph.aws4.resourceIcon;resIcon=mxgraph.aws4.lambda;" vertex="1" parent="1">
          <mxGeometry x="470" y="3930" width="78" height="78" as="geometry" />
        </mxCell>
        <mxCell id="vcTBE_vuHNgua-nWtFjC-50" value="&lt;div&gt;room-api-{stage}&lt;/div&gt;room_delete&lt;div&gt;&lt;/div&gt;" style="sketch=0;points=[[0,0,0],[0.25,0,0],[0.5,0,0],[0.75,0,0],[1,0,0],[0,1,0],[0.25,1,0],[0.5,1,0],[0.75,1,0],[1,1,0],[0,0.25,0],[0,0.5,0],[0,0.75,0],[1,0.25,0],[1,0.5,0],[1,0.75,0]];outlineConnect=0;fontColor=#232F3E;fillColor=#ED7100;strokeColor=#ffffff;dashed=0;verticalLabelPosition=bottom;verticalAlign=top;align=center;html=1;fontSize=12;fontStyle=1;aspect=fixed;shape=mxgraph.aws4.resourceIcon;resIcon=mxgraph.aws4.lambda;" vertex="1" parent="1">
          <mxGeometry x="470" y="4050" width="78" height="78" as="geometry" />
        </mxCell>
        <mxCell id="vcTBE_vuHNgua-nWtFjC-51" value="&lt;div&gt;room-api-{stage}&lt;/div&gt;room_create&lt;div&gt;&lt;/div&gt;" style="sketch=0;points=[[0,0,0],[0.25,0,0],[0.5,0,0],[0.75,0,0],[1,0,0],[0,1,0],[0.25,1,0],[0.5,1,0],[0.75,1,0],[1,1,0],[0,0.25,0],[0,0.5,0],[0,0.75,0],[1,0.25,0],[1,0.5,0],[1,0.75,0]];outlineConnect=0;fontColor=#232F3E;fillColor=#ED7100;strokeColor=#ffffff;dashed=0;verticalLabelPosition=bottom;verticalAlign=top;align=center;html=1;fontSize=12;fontStyle=1;aspect=fixed;shape=mxgraph.aws4.resourceIcon;resIcon=mxgraph.aws4.lambda;" vertex="1" parent="1">
          <mxGeometry x="470" y="4170" width="78" height="78" as="geometry" />
        </mxCell>
        <mxCell id="vcTBE_vuHNgua-nWtFjC-52" value="&lt;div&gt;room-api-{stage}&lt;/div&gt;room_getAllByTenant&lt;div&gt;&lt;/div&gt;" style="sketch=0;points=[[0,0,0],[0.25,0,0],[0.5,0,0],[0.75,0,0],[1,0,0],[0,1,0],[0.25,1,0],[0.5,1,0],[0.75,1,0],[1,1,0],[0,0.25,0],[0,0.5,0],[0,0.75,0],[1,0.25,0],[1,0.5,0],[1,0.75,0]];outlineConnect=0;fontColor=#232F3E;fillColor=#ED7100;strokeColor=#ffffff;dashed=0;verticalLabelPosition=bottom;verticalAlign=top;align=center;html=1;fontSize=12;fontStyle=1;aspect=fixed;shape=mxgraph.aws4.resourceIcon;resIcon=mxgraph.aws4.lambda;" vertex="1" parent="1">
          <mxGeometry x="470" y="4290" width="78" height="78" as="geometry" />
        </mxCell>
        <mxCell id="vcTBE_vuHNgua-nWtFjC-53" value="&lt;div&gt;room-api-{stage}&lt;/div&gt;room_toggleAvailability&lt;div&gt;&lt;/div&gt;" style="sketch=0;points=[[0,0,0],[0.25,0,0],[0.5,0,0],[0.75,0,0],[1,0,0],[0,1,0],[0.25,1,0],[0.5,1,0],[0.75,1,0],[1,1,0],[0,0.25,0],[0,0.5,0],[0,0.75,0],[1,0.25,0],[1,0.5,0],[1,0.75,0]];outlineConnect=0;fontColor=#232F3E;fillColor=#ED7100;strokeColor=#ffffff;dashed=0;verticalLabelPosition=bottom;verticalAlign=top;align=center;html=1;fontSize=12;fontStyle=1;aspect=fixed;shape=mxgraph.aws4.resourceIcon;resIcon=mxgraph.aws4.lambda;" vertex="1" parent="1">
          <mxGeometry x="470" y="4420" width="78" height="78" as="geometry" />
        </mxCell>
        <mxCell id="vcTBE_vuHNgua-nWtFjC-54" value="&lt;div&gt;room-api-{stage}&lt;/div&gt;room_getAll&lt;div&gt;&lt;/div&gt;" style="sketch=0;points=[[0,0,0],[0.25,0,0],[0.5,0,0],[0.75,0,0],[1,0,0],[0,1,0],[0.25,1,0],[0.5,1,0],[0.75,1,0],[1,1,0],[0,0.25,0],[0,0.5,0],[0,0.75,0],[1,0.25,0],[1,0.5,0],[1,0.75,0]];outlineConnect=0;fontColor=#232F3E;fillColor=#ED7100;strokeColor=#ffffff;dashed=0;verticalLabelPosition=bottom;verticalAlign=top;align=center;html=1;fontSize=12;fontStyle=1;aspect=fixed;shape=mxgraph.aws4.resourceIcon;resIcon=mxgraph.aws4.lambda;" vertex="1" parent="1">
          <mxGeometry x="470" y="4550" width="78" height="78" as="geometry" />
        </mxCell>
        <mxCell id="vcTBE_vuHNgua-nWtFjC-55" value="api-room-{stage}" style="sketch=0;points=[[0,0,0],[0.25,0,0],[0.5,0,0],[0.75,0,0],[1,0,0],[0,1,0],[0.25,1,0],[0.5,1,0],[0.75,1,0],[1,1,0],[0,0.25,0],[0,0.5,0],[0,0.75,0],[1,0.25,0],[1,0.5,0],[1,0.75,0]];outlineConnect=0;fontColor=#232F3E;fillColor=#E7157B;strokeColor=#ffffff;dashed=0;verticalLabelPosition=bottom;verticalAlign=top;align=center;html=1;fontSize=12;fontStyle=0;aspect=fixed;shape=mxgraph.aws4.resourceIcon;resIcon=mxgraph.aws4.api_gateway;" vertex="1" parent="1">
          <mxGeometry x="170" y="4230" width="68" height="68" as="geometry" />
        </mxCell>
        <mxCell id="vcTBE_vuHNgua-nWtFjC-56" value="{stage}-hotel-rooms" style="sketch=0;points=[[0,0,0],[0.25,0,0],[0.5,0,0],[0.75,0,0],[1,0,0],[0,1,0],[0.25,1,0],[0.5,1,0],[0.75,1,0],[1,1,0],[0,0.25,0],[0,0.5,0],[0,0.75,0],[1,0.25,0],[1,0.5,0],[1,0.75,0]];outlineConnect=0;fontColor=#232F3E;fillColor=#C925D1;strokeColor=#ffffff;dashed=0;verticalLabelPosition=bottom;verticalAlign=top;align=center;html=1;fontSize=12;fontStyle=0;aspect=fixed;shape=mxgraph.aws4.resourceIcon;resIcon=mxgraph.aws4.dynamodb;" vertex="1" parent="1">
          <mxGeometry x="860" y="3940" width="78" height="78" as="geometry" />
        </mxCell>
        <mxCell id="vcTBE_vuHNgua-nWtFjC-57" value="user-api-{stage}&lt;div&gt;hotel_validateUserToken&lt;/div&gt;" style="sketch=0;points=[[0,0,0],[0.25,0,0],[0.5,0,0],[0.75,0,0],[1,0,0],[0,1,0],[0.25,1,0],[0.5,1,0],[0.75,1,0],[1,1,0],[0,0.25,0],[0,0.5,0],[0,0.75,0],[1,0.25,0],[1,0.5,0],[1,0.75,0]];outlineConnect=0;fontColor=#232F3E;fillColor=#ED7100;strokeColor=#ffffff;dashed=0;verticalLabelPosition=bottom;verticalAlign=top;align=center;html=1;fontSize=12;fontStyle=1;aspect=fixed;shape=mxgraph.aws4.resourceIcon;resIcon=mxgraph.aws4.lambda;" vertex="1" parent="1">
          <mxGeometry x="820" y="4200" width="78" height="78" as="geometry" />
        </mxCell>
        <mxCell id="vcTBE_vuHNgua-nWtFjC-58" value="service-api-{stage}&lt;div&gt;&lt;/div&gt;&lt;div&gt;service_getById&lt;/div&gt;" style="sketch=0;points=[[0,0,0],[0.25,0,0],[0.5,0,0],[0.75,0,0],[1,0,0],[0,1,0],[0.25,1,0],[0.5,1,0],[0.75,1,0],[1,1,0],[0,0.25,0],[0,0.5,0],[0,0.75,0],[1,0.25,0],[1,0.5,0],[1,0.75,0]];outlineConnect=0;fontColor=#232F3E;fillColor=#ED7100;strokeColor=#ffffff;dashed=0;verticalLabelPosition=bottom;verticalAlign=top;align=center;html=1;fontSize=12;fontStyle=1;aspect=fixed;shape=mxgraph.aws4.resourceIcon;resIcon=mxgraph.aws4.lambda;" vertex="1" parent="1">
          <mxGeometry x="480" y="4830" width="78" height="78" as="geometry" />
        </mxCell>
        <mxCell id="vcTBE_vuHNgua-nWtFjC-59" value="service-api-{stage}&lt;div&gt;&lt;/div&gt;&lt;div&gt;service_update&lt;/div&gt;&lt;div&gt;&lt;/div&gt;" style="sketch=0;points=[[0,0,0],[0.25,0,0],[0.5,0,0],[0.75,0,0],[1,0,0],[0,1,0],[0.25,1,0],[0.5,1,0],[0.75,1,0],[1,1,0],[0,0.25,0],[0,0.5,0],[0,0.75,0],[1,0.25,0],[1,0.5,0],[1,0.75,0]];outlineConnect=0;fontColor=#232F3E;fillColor=#ED7100;strokeColor=#ffffff;dashed=0;verticalLabelPosition=bottom;verticalAlign=top;align=center;html=1;fontSize=12;fontStyle=1;aspect=fixed;shape=mxgraph.aws4.resourceIcon;resIcon=mxgraph.aws4.lambda;" vertex="1" parent="1">
          <mxGeometry x="480" y="4950" width="78" height="78" as="geometry" />
        </mxCell>
        <mxCell id="vcTBE_vuHNgua-nWtFjC-60" value="service-api-{stage}&lt;div&gt;&lt;/div&gt;&lt;div&gt;service_getAllByCategory&lt;/div&gt;&lt;div&gt;&lt;/div&gt;" style="sketch=0;points=[[0,0,0],[0.25,0,0],[0.5,0,0],[0.75,0,0],[1,0,0],[0,1,0],[0.25,1,0],[0.5,1,0],[0.75,1,0],[1,1,0],[0,0.25,0],[0,0.5,0],[0,0.75,0],[1,0.25,0],[1,0.5,0],[1,0.75,0]];outlineConnect=0;fontColor=#232F3E;fillColor=#ED7100;strokeColor=#ffffff;dashed=0;verticalLabelPosition=bottom;verticalAlign=top;align=center;html=1;fontSize=12;fontStyle=1;aspect=fixed;shape=mxgraph.aws4.resourceIcon;resIcon=mxgraph.aws4.lambda;" vertex="1" parent="1">
          <mxGeometry x="480" y="5070" width="78" height="78" as="geometry" />
        </mxCell>
        <mxCell id="vcTBE_vuHNgua-nWtFjC-61" value="service-api-{stage}&lt;div&gt;&lt;/div&gt;&lt;div&gt;service_create&lt;/div&gt;&lt;div&gt;&lt;/div&gt;" style="sketch=0;points=[[0,0,0],[0.25,0,0],[0.5,0,0],[0.75,0,0],[1,0,0],[0,1,0],[0.25,1,0],[0.5,1,0],[0.75,1,0],[1,1,0],[0,0.25,0],[0,0.5,0],[0,0.75,0],[1,0.25,0],[1,0.5,0],[1,0.75,0]];outlineConnect=0;fontColor=#232F3E;fillColor=#ED7100;strokeColor=#ffffff;dashed=0;verticalLabelPosition=bottom;verticalAlign=top;align=center;html=1;fontSize=12;fontStyle=1;aspect=fixed;shape=mxgraph.aws4.resourceIcon;resIcon=mxgraph.aws4.lambda;" vertex="1" parent="1">
          <mxGeometry x="480" y="5190" width="78" height="78" as="geometry" />
        </mxCell>
        <mxCell id="vcTBE_vuHNgua-nWtFjC-62" value="service-api-{stage}&lt;div&gt;&lt;/div&gt;&lt;div&gt;service_delete&lt;/div&gt;&lt;div&gt;&lt;/div&gt;" style="sketch=0;points=[[0,0,0],[0.25,0,0],[0.5,0,0],[0.75,0,0],[1,0,0],[0,1,0],[0.25,1,0],[0.5,1,0],[0.75,1,0],[1,1,0],[0,0.25,0],[0,0.5,0],[0,0.75,0],[1,0.25,0],[1,0.5,0],[1,0.75,0]];outlineConnect=0;fontColor=#232F3E;fillColor=#ED7100;strokeColor=#ffffff;dashed=0;verticalLabelPosition=bottom;verticalAlign=top;align=center;html=1;fontSize=12;fontStyle=1;aspect=fixed;shape=mxgraph.aws4.resourceIcon;resIcon=mxgraph.aws4.lambda;" vertex="1" parent="1">
          <mxGeometry x="480" y="5320" width="78" height="78" as="geometry" />
        </mxCell>
        <mxCell id="vcTBE_vuHNgua-nWtFjC-63" value="service-api-{stage}&lt;div&gt;&lt;/div&gt;&lt;div&gt;service_getByTenant&lt;/div&gt;&lt;div&gt;&lt;/div&gt;" style="sketch=0;points=[[0,0,0],[0.25,0,0],[0.5,0,0],[0.75,0,0],[1,0,0],[0,1,0],[0.25,1,0],[0.5,1,0],[0.75,1,0],[1,1,0],[0,0.25,0],[0,0.5,0],[0,0.75,0],[1,0.25,0],[1,0.5,0],[1,0.75,0]];outlineConnect=0;fontColor=#232F3E;fillColor=#ED7100;strokeColor=#ffffff;dashed=0;verticalLabelPosition=bottom;verticalAlign=top;align=center;html=1;fontSize=12;fontStyle=1;aspect=fixed;shape=mxgraph.aws4.resourceIcon;resIcon=mxgraph.aws4.lambda;" vertex="1" parent="1">
          <mxGeometry x="480" y="5450" width="78" height="78" as="geometry" />
        </mxCell>
        <mxCell id="vcTBE_vuHNgua-nWtFjC-64" value="api-comment-{stage}" style="sketch=0;points=[[0,0,0],[0.25,0,0],[0.5,0,0],[0.75,0,0],[1,0,0],[0,1,0],[0.25,1,0],[0.5,1,0],[0.75,1,0],[1,1,0],[0,0.25,0],[0,0.5,0],[0,0.75,0],[1,0.25,0],[1,0.5,0],[1,0.75,0]];outlineConnect=0;fontColor=#232F3E;fillColor=#E7157B;strokeColor=#ffffff;dashed=0;verticalLabelPosition=bottom;verticalAlign=top;align=center;html=1;fontSize=12;fontStyle=0;aspect=fixed;shape=mxgraph.aws4.resourceIcon;resIcon=mxgraph.aws4.api_gateway;" vertex="1" parent="1">
          <mxGeometry x="180" y="5090" width="68" height="68" as="geometry" />
        </mxCell>
        <mxCell id="vcTBE_vuHNgua-nWtFjC-65" value="{stage}-hotel-services" style="sketch=0;points=[[0,0,0],[0.25,0,0],[0.5,0,0],[0.75,0,0],[1,0,0],[0,1,0],[0.25,1,0],[0.5,1,0],[0.75,1,0],[1,1,0],[0,0.25,0],[0,0.5,0],[0,0.75,0],[1,0.25,0],[1,0.5,0],[1,0.75,0]];outlineConnect=0;fontColor=#232F3E;fillColor=#C925D1;strokeColor=#ffffff;dashed=0;verticalLabelPosition=bottom;verticalAlign=top;align=center;html=1;fontSize=12;fontStyle=0;aspect=fixed;shape=mxgraph.aws4.resourceIcon;resIcon=mxgraph.aws4.dynamodb;" vertex="1" parent="1">
          <mxGeometry x="870" y="4840" width="78" height="78" as="geometry" />
        </mxCell>
        <mxCell id="vcTBE_vuHNgua-nWtFjC-66" value="user-api-{stage}&lt;div&gt;hotel_validateUserToken&lt;/div&gt;" style="sketch=0;points=[[0,0,0],[0.25,0,0],[0.5,0,0],[0.75,0,0],[1,0,0],[0,1,0],[0.25,1,0],[0.5,1,0],[0.75,1,0],[1,1,0],[0,0.25,0],[0,0.5,0],[0,0.75,0],[1,0.25,0],[1,0.5,0],[1,0.75,0]];outlineConnect=0;fontColor=#232F3E;fillColor=#ED7100;strokeColor=#ffffff;dashed=0;verticalLabelPosition=bottom;verticalAlign=top;align=center;html=1;fontSize=12;fontStyle=1;aspect=fixed;shape=mxgraph.aws4.resourceIcon;resIcon=mxgraph.aws4.lambda;" vertex="1" parent="1">
          <mxGeometry x="830" y="5100" width="78" height="78" as="geometry" />
        </mxCell>
        <mxCell id="vcTBE_vuHNgua-nWtFjC-67" value="user-api-{stage}&lt;div&gt;hotel_getuser&lt;/div&gt;" style="sketch=0;points=[[0,0,0],[0.25,0,0],[0.5,0,0],[0.75,0,0],[1,0,0],[0,1,0],[0.25,1,0],[0.5,1,0],[0.75,1,0],[1,1,0],[0,0.25,0],[0,0.5,0],[0,0.75,0],[1,0.25,0],[1,0.5,0],[1,0.75,0]];outlineConnect=0;fontColor=#232F3E;fillColor=#ED7100;strokeColor=#ffffff;dashed=0;verticalLabelPosition=bottom;verticalAlign=top;align=center;html=1;fontSize=12;fontStyle=1;aspect=fixed;shape=mxgraph.aws4.resourceIcon;resIcon=mxgraph.aws4.lambda;" vertex="1" parent="1">
          <mxGeometry x="470" y="5640" width="78" height="78" as="geometry" />
        </mxCell>
        <mxCell id="vcTBE_vuHNgua-nWtFjC-68" value="user-api-{stage}&lt;div&gt;hotel_validateUserToken&lt;/div&gt;&lt;div&gt;&lt;/div&gt;" style="sketch=0;points=[[0,0,0],[0.25,0,0],[0.5,0,0],[0.75,0,0],[1,0,0],[0,1,0],[0.25,1,0],[0.5,1,0],[0.75,1,0],[1,1,0],[0,0.25,0],[0,0.5,0],[0,0.75,0],[1,0.25,0],[1,0.5,0],[1,0.75,0]];outlineConnect=0;fontColor=#232F3E;fillColor=#ED7100;strokeColor=#ffffff;dashed=0;verticalLabelPosition=bottom;verticalAlign=top;align=center;html=1;fontSize=12;fontStyle=1;aspect=fixed;shape=mxgraph.aws4.resourceIcon;resIcon=mxgraph.aws4.lambda;" vertex="1" parent="1">
          <mxGeometry x="470" y="5760" width="78" height="78" as="geometry" />
        </mxCell>
        <mxCell id="vcTBE_vuHNgua-nWtFjC-69" value="user-api-{stage}&lt;div&gt;hotel_registerUser&lt;/div&gt;" style="sketch=0;points=[[0,0,0],[0.25,0,0],[0.5,0,0],[0.75,0,0],[1,0,0],[0,1,0],[0.25,1,0],[0.5,1,0],[0.75,1,0],[1,1,0],[0,0.25,0],[0,0.5,0],[0,0.75,0],[1,0.25,0],[1,0.5,0],[1,0.75,0]];outlineConnect=0;fontColor=#232F3E;fillColor=#ED7100;strokeColor=#ffffff;dashed=0;verticalLabelPosition=bottom;verticalAlign=top;align=center;html=1;fontSize=12;fontStyle=1;aspect=fixed;shape=mxgraph.aws4.resourceIcon;resIcon=mxgraph.aws4.lambda;" vertex="1" parent="1">
          <mxGeometry x="470" y="5880" width="78" height="78" as="geometry" />
        </mxCell>
        <mxCell id="vcTBE_vuHNgua-nWtFjC-70" value="user-api-{stage}&lt;div&gt;hotel_loginUser&lt;/div&gt;&lt;div&gt;&lt;/div&gt;" style="sketch=0;points=[[0,0,0],[0.25,0,0],[0.5,0,0],[0.75,0,0],[1,0,0],[0,1,0],[0.25,1,0],[0.5,1,0],[0.75,1,0],[1,1,0],[0,0.25,0],[0,0.5,0],[0,0.75,0],[1,0.25,0],[1,0.5,0],[1,0.75,0]];outlineConnect=0;fontColor=#232F3E;fillColor=#ED7100;strokeColor=#ffffff;dashed=0;verticalLabelPosition=bottom;verticalAlign=top;align=center;html=1;fontSize=12;fontStyle=1;aspect=fixed;shape=mxgraph.aws4.resourceIcon;resIcon=mxgraph.aws4.lambda;" vertex="1" parent="1">
          <mxGeometry x="470" y="6000" width="78" height="78" as="geometry" />
        </mxCell>
        <mxCell id="vcTBE_vuHNgua-nWtFjC-73" value="api-user-{stage}" style="sketch=0;points=[[0,0,0],[0.25,0,0],[0.5,0,0],[0.75,0,0],[1,0,0],[0,1,0],[0.25,1,0],[0.5,1,0],[0.75,1,0],[1,1,0],[0,0.25,0],[0,0.5,0],[0,0.75,0],[1,0.25,0],[1,0.5,0],[1,0.75,0]];outlineConnect=0;fontColor=#232F3E;fillColor=#E7157B;strokeColor=#ffffff;dashed=0;verticalLabelPosition=bottom;verticalAlign=top;align=center;html=1;fontSize=12;fontStyle=0;aspect=fixed;shape=mxgraph.aws4.resourceIcon;resIcon=mxgraph.aws4.api_gateway;" vertex="1" parent="1">
          <mxGeometry x="170" y="5940" width="68" height="68" as="geometry" />
        </mxCell>
        <mxCell id="vcTBE_vuHNgua-nWtFjC-74" value="{stage}-hotel-users" style="sketch=0;points=[[0,0,0],[0.25,0,0],[0.5,0,0],[0.75,0,0],[1,0,0],[0,1,0],[0.25,1,0],[0.5,1,0],[0.75,1,0],[1,1,0],[0,0.25,0],[0,0.5,0],[0,0.75,0],[1,0.25,0],[1,0.5,0],[1,0.75,0]];outlineConnect=0;fontColor=#232F3E;fillColor=#C925D1;strokeColor=#ffffff;dashed=0;verticalLabelPosition=bottom;verticalAlign=top;align=center;html=1;fontSize=12;fontStyle=0;aspect=fixed;shape=mxgraph.aws4.resourceIcon;resIcon=mxgraph.aws4.dynamodb;" vertex="1" parent="1">
          <mxGeometry x="860" y="5650" width="78" height="78" as="geometry" />
        </mxCell>
        <mxCell id="vcTBE_vuHNgua-nWtFjC-76" value="hotel-api-{stage}&lt;div&gt;&lt;/div&gt;&lt;div&gt;hotel_readByLocation&lt;/div&gt;&lt;div&gt;&lt;/div&gt;" style="sketch=0;points=[[0,0,0],[0.25,0,0],[0.5,0,0],[0.75,0,0],[1,0,0],[0,1,0],[0.25,1,0],[0.5,1,0],[0.75,1,0],[1,1,0],[0,0.25,0],[0,0.5,0],[0,0.75,0],[1,0.25,0],[1,0.5,0],[1,0.75,0]];outlineConnect=0;fontColor=#232F3E;fillColor=#ED7100;strokeColor=#ffffff;dashed=0;verticalLabelPosition=bottom;verticalAlign=top;align=center;html=1;fontSize=12;fontStyle=1;aspect=fixed;shape=mxgraph.aws4.resourceIcon;resIcon=mxgraph.aws4.lambda;" vertex="1" parent="1">
          <mxGeometry x="470" y="1770" width="78" height="78" as="geometry" />
        </mxCell>
        <mxCell id="vcTBE_vuHNgua-nWtFjC-77" value="hotel-api-{stage}&lt;div&gt;&lt;/div&gt;&lt;div&gt;hotel_getAll&lt;/div&gt;&lt;div&gt;&lt;/div&gt;" style="sketch=0;points=[[0,0,0],[0.25,0,0],[0.5,0,0],[0.75,0,0],[1,0,0],[0,1,0],[0.25,1,0],[0.5,1,0],[0.75,1,0],[1,1,0],[0,0.25,0],[0,0.5,0],[0,0.75,0],[1,0.25,0],[1,0.5,0],[1,0.75,0]];outlineConnect=0;fontColor=#232F3E;fillColor=#ED7100;strokeColor=#ffffff;dashed=0;verticalLabelPosition=bottom;verticalAlign=top;align=center;html=1;fontSize=12;fontStyle=1;aspect=fixed;shape=mxgraph.aws4.resourceIcon;resIcon=mxgraph.aws4.lambda;" vertex="1" parent="1">
          <mxGeometry x="470" y="1890" width="78" height="78" as="geometry" />
        </mxCell>
        <mxCell id="vcTBE_vuHNgua-nWtFjC-80" value="&lt;div&gt;room-api-{stage}&lt;/div&gt;room_getById&lt;div&gt;&lt;/div&gt;" style="sketch=0;points=[[0,0,0],[0.25,0,0],[0.5,0,0],[0.75,0,0],[1,0,0],[0,1,0],[0.25,1,0],[0.5,1,0],[0.75,1,0],[1,1,0],[0,0.25,0],[0,0.5,0],[0,0.75,0],[1,0.25,0],[1,0.5,0],[1,0.75,0]];outlineConnect=0;fontColor=#232F3E;fillColor=#ED7100;strokeColor=#ffffff;dashed=0;verticalLabelPosition=bottom;verticalAlign=top;align=center;html=1;fontSize=12;fontStyle=1;aspect=fixed;shape=mxgraph.aws4.resourceIcon;resIcon=mxgraph.aws4.lambda;" vertex="1" parent="1">
          <mxGeometry x="470" y="4670" width="78" height="78" as="geometry" />
        </mxCell>
        <mxCell id="vcTBE_vuHNgua-nWtFjC-82" value="{stage}-hotel-tokens" style="sketch=0;points=[[0,0,0],[0.25,0,0],[0.5,0,0],[0.75,0,0],[1,0,0],[0,1,0],[0.25,1,0],[0.5,1,0],[0.75,1,0],[1,1,0],[0,0.25,0],[0,0.5,0],[0,0.75,0],[1,0.25,0],[1,0.5,0],[1,0.75,0]];outlineConnect=0;fontColor=#232F3E;fillColor=#C925D1;strokeColor=#ffffff;dashed=0;verticalLabelPosition=bottom;verticalAlign=top;align=center;html=1;fontSize=12;fontStyle=0;aspect=fixed;shape=mxgraph.aws4.resourceIcon;resIcon=mxgraph.aws4.dynamodb;" vertex="1" parent="1">
          <mxGeometry x="1163" y="5261" width="78" height="78" as="geometry" />
        </mxCell>
        <mxCell id="vcTBE_vuHNgua-nWtFjC-84" value="token" style="edgeStyle=orthogonalEdgeStyle;rounded=0;orthogonalLoop=1;jettySize=auto;html=1;entryX=0;entryY=0;entryDx=0;entryDy=0;entryPerimeter=0;" edge="1" parent="1" source="vcTBE_vuHNgua-nWtFjC-1" target="vcTBE_vuHNgua-nWtFjC-12">
          <mxGeometry relative="1" as="geometry" />
        </mxCell>
        <mxCell id="vcTBE_vuHNgua-nWtFjC-86" value="token" style="edgeStyle=orthogonalEdgeStyle;rounded=0;orthogonalLoop=1;jettySize=auto;html=1;entryX=0;entryY=0;entryDx=0;entryDy=0;entryPerimeter=0;" edge="1" parent="1" source="vcTBE_vuHNgua-nWtFjC-4" target="vcTBE_vuHNgua-nWtFjC-12">
          <mxGeometry relative="1" as="geometry">
            <Array as="points">
              <mxPoint x="670" y="420" />
              <mxPoint x="670" y="400" />
            </Array>
          </mxGeometry>
        </mxCell>
        <mxCell id="vcTBE_vuHNgua-nWtFjC-88" value="token" style="edgeStyle=orthogonalEdgeStyle;rounded=0;orthogonalLoop=1;jettySize=auto;html=1;entryX=0;entryY=0.75;entryDx=0;entryDy=0;entryPerimeter=0;" edge="1" parent="1" source="vcTBE_vuHNgua-nWtFjC-5" target="vcTBE_vuHNgua-nWtFjC-12">
          <mxGeometry relative="1" as="geometry">
            <Array as="points">
              <mxPoint x="730" y="539" />
              <mxPoint x="730" y="460" />
              <mxPoint x="880" y="460" />
            </Array>
          </mxGeometry>
        </mxCell>
        <mxCell id="vcTBE_vuHNgua-nWtFjC-92" value="autorizar acceso" style="edgeStyle=orthogonalEdgeStyle;rounded=0;orthogonalLoop=1;jettySize=auto;html=1;exitX=1;exitY=0;exitDx=0;exitDy=0;exitPerimeter=0;entryX=1;entryY=0.75;entryDx=0;entryDy=0;entryPerimeter=0;" edge="1" parent="1" source="vcTBE_vuHNgua-nWtFjC-12" target="vcTBE_vuHNgua-nWtFjC-1">
          <mxGeometry relative="1" as="geometry" />
        </mxCell>
        <mxCell id="vcTBE_vuHNgua-nWtFjC-94" value="autorizar acceso" style="edgeStyle=orthogonalEdgeStyle;rounded=0;orthogonalLoop=1;jettySize=auto;html=1;exitX=1;exitY=0;exitDx=0;exitDy=0;exitPerimeter=0;entryX=1;entryY=0.75;entryDx=0;entryDy=0;entryPerimeter=0;" edge="1" parent="1" source="vcTBE_vuHNgua-nWtFjC-12" target="vcTBE_vuHNgua-nWtFjC-3">
          <mxGeometry relative="1" as="geometry" />
        </mxCell>
        <mxCell id="vcTBE_vuHNgua-nWtFjC-95" value="autorizar acceso" style="edgeStyle=orthogonalEdgeStyle;rounded=0;orthogonalLoop=1;jettySize=auto;html=1;exitX=1;exitY=0;exitDx=0;exitDy=0;exitPerimeter=0;entryX=1;entryY=0.75;entryDx=0;entryDy=0;entryPerimeter=0;" edge="1" parent="1" source="vcTBE_vuHNgua-nWtFjC-12" target="vcTBE_vuHNgua-nWtFjC-4">
          <mxGeometry relative="1" as="geometry">
            <Array as="points">
              <mxPoint x="958" y="370" />
              <mxPoint x="800" y="370" />
              <mxPoint x="800" y="438" />
            </Array>
          </mxGeometry>
        </mxCell>
        <mxCell id="vcTBE_vuHNgua-nWtFjC-97" value="autorizar acceso" style="edgeStyle=orthogonalEdgeStyle;rounded=0;orthogonalLoop=1;jettySize=auto;html=1;exitX=1;exitY=0.75;exitDx=0;exitDy=0;exitPerimeter=0;entryX=1;entryY=0.75;entryDx=0;entryDy=0;entryPerimeter=0;" edge="1" parent="1" source="vcTBE_vuHNgua-nWtFjC-12" target="vcTBE_vuHNgua-nWtFjC-5">
          <mxGeometry relative="1" as="geometry" />
        </mxCell>
        <mxCell id="vcTBE_vuHNgua-nWtFjC-98" value="autorizar acceso" style="edgeStyle=orthogonalEdgeStyle;rounded=0;orthogonalLoop=1;jettySize=auto;html=1;exitX=1;exitY=0.75;exitDx=0;exitDy=0;exitPerimeter=0;entryX=1;entryY=0.75;entryDx=0;entryDy=0;entryPerimeter=0;" edge="1" parent="1" source="vcTBE_vuHNgua-nWtFjC-12" target="vcTBE_vuHNgua-nWtFjC-6">
          <mxGeometry relative="1" as="geometry" />
        </mxCell>
        <mxCell id="vcTBE_vuHNgua-nWtFjC-100" value="registrar comentario" style="edgeStyle=orthogonalEdgeStyle;rounded=0;orthogonalLoop=1;jettySize=auto;html=1;exitX=1;exitY=0.25;exitDx=0;exitDy=0;exitPerimeter=0;entryX=0;entryY=0.5;entryDx=0;entryDy=0;entryPerimeter=0;" edge="1" parent="1" source="vcTBE_vuHNgua-nWtFjC-6" target="vcTBE_vuHNgua-nWtFjC-10">
          <mxGeometry relative="1" as="geometry">
            <Array as="points">
              <mxPoint x="548" y="620" />
              <mxPoint x="824" y="620" />
              <mxPoint x="824" y="650" />
              <mxPoint x="1070" y="650" />
              <mxPoint x="1070" y="679" />
            </Array>
          </mxGeometry>
        </mxCell>
        <mxCell id="vcTBE_vuHNgua-nWtFjC-101" value="{stage}-hotel-users" style="sketch=0;points=[[0,0,0],[0.25,0,0],[0.5,0,0],[0.75,0,0],[1,0,0],[0,1,0],[0.25,1,0],[0.5,1,0],[0.75,1,0],[1,1,0],[0,0.25,0],[0,0.5,0],[0,0.75,0],[1,0.25,0],[1,0.5,0],[1,0.75,0]];outlineConnect=0;fontColor=#232F3E;fillColor=#C925D1;strokeColor=#ffffff;dashed=0;verticalLabelPosition=bottom;verticalAlign=top;align=center;html=1;fontSize=12;fontStyle=0;aspect=fixed;shape=mxgraph.aws4.resourceIcon;resIcon=mxgraph.aws4.dynamodb;" vertex="1" parent="1">
          <mxGeometry x="1400" y="400" width="78" height="78" as="geometry" />
        </mxCell>
        <mxCell id="vcTBE_vuHNgua-nWtFjC-102" value="valida (token, expiracion)" style="edgeStyle=orthogonalEdgeStyle;rounded=0;orthogonalLoop=1;jettySize=auto;html=1;entryX=0;entryY=0.5;entryDx=0;entryDy=0;entryPerimeter=0;" edge="1" parent="1" source="vcTBE_vuHNgua-nWtFjC-12" target="vcTBE_vuHNgua-nWtFjC-101">
          <mxGeometry x="0.5023" relative="1" as="geometry">
            <mxPoint as="offset" />
          </mxGeometry>
        </mxCell>
        <mxCell id="vcTBE_vuHNgua-nWtFjC-103" value="GET/comments/{tenant_id}/{room_id}" style="edgeStyle=orthogonalEdgeStyle;rounded=0;orthogonalLoop=1;jettySize=auto;html=1;entryX=0;entryY=0.5;entryDx=0;entryDy=0;entryPerimeter=0;" edge="1" parent="1" source="vcTBE_vuHNgua-nWtFjC-9" target="vcTBE_vuHNgua-nWtFjC-1">
          <mxGeometry x="0.6286" relative="1" as="geometry">
            <Array as="points">
              <mxPoint y="419" />
              <mxPoint y="179" />
            </Array>
            <mxPoint x="-1" as="offset" />
          </mxGeometry>
        </mxCell>
        <mxCell id="vcTBE_vuHNgua-nWtFjC-104" style="edgeStyle=orthogonalEdgeStyle;rounded=0;orthogonalLoop=1;jettySize=auto;html=1;entryX=0;entryY=0.5;entryDx=0;entryDy=0;entryPerimeter=0;" edge="1" parent="1" source="vcTBE_vuHNgua-nWtFjC-9" target="vcTBE_vuHNgua-nWtFjC-3">
          <mxGeometry relative="1" as="geometry">
            <Array as="points">
              <mxPoint y="419" />
              <mxPoint y="299" />
            </Array>
          </mxGeometry>
        </mxCell>
        <mxCell id="vcTBE_vuHNgua-nWtFjC-105" value="GET/comments/{tenant_id}/{user_id}" style="edgeLabel;html=1;align=center;verticalAlign=middle;resizable=0;points=[];" vertex="1" connectable="0" parent="vcTBE_vuHNgua-nWtFjC-104">
          <mxGeometry x="0.5431" y="1" relative="1" as="geometry">
            <mxPoint as="offset" />
          </mxGeometry>
        </mxCell>
        <mxCell id="vcTBE_vuHNgua-nWtFjC-106" style="edgeStyle=orthogonalEdgeStyle;rounded=0;orthogonalLoop=1;jettySize=auto;html=1;entryX=0;entryY=0.5;entryDx=0;entryDy=0;entryPerimeter=0;" edge="1" parent="1" source="vcTBE_vuHNgua-nWtFjC-9" target="vcTBE_vuHNgua-nWtFjC-4">
          <mxGeometry relative="1" as="geometry" />
        </mxCell>
        <mxCell id="vcTBE_vuHNgua-nWtFjC-107" value="PUT/comment/update/{tenant_id}/{comment_id}" style="edgeLabel;html=1;align=center;verticalAlign=middle;resizable=0;points=[];" vertex="1" connectable="0" parent="vcTBE_vuHNgua-nWtFjC-106">
          <mxGeometry x="0.4062" y="1" relative="1" as="geometry">
            <mxPoint as="offset" />
          </mxGeometry>
        </mxCell>
        <mxCell id="vcTBE_vuHNgua-nWtFjC-108" style="edgeStyle=orthogonalEdgeStyle;rounded=0;orthogonalLoop=1;jettySize=auto;html=1;entryX=0;entryY=0.5;entryDx=0;entryDy=0;entryPerimeter=0;" edge="1" parent="1" source="vcTBE_vuHNgua-nWtFjC-9" target="vcTBE_vuHNgua-nWtFjC-5">
          <mxGeometry relative="1" as="geometry">
            <Array as="points">
              <mxPoint y="419" />
              <mxPoint y="539" />
            </Array>
          </mxGeometry>
        </mxCell>
        <mxCell id="vcTBE_vuHNgua-nWtFjC-109" value="DELETE/comment/{tenant_id}/{comment_id}" style="edgeLabel;html=1;align=center;verticalAlign=middle;resizable=0;points=[];" vertex="1" connectable="0" parent="vcTBE_vuHNgua-nWtFjC-108">
          <mxGeometry x="0.4618" y="2" relative="1" as="geometry">
            <mxPoint as="offset" />
          </mxGeometry>
        </mxCell>
        <mxCell id="vcTBE_vuHNgua-nWtFjC-110" style="edgeStyle=orthogonalEdgeStyle;rounded=0;orthogonalLoop=1;jettySize=auto;html=1;entryX=0;entryY=0.5;entryDx=0;entryDy=0;entryPerimeter=0;" edge="1" parent="1" source="vcTBE_vuHNgua-nWtFjC-9" target="vcTBE_vuHNgua-nWtFjC-6">
          <mxGeometry relative="1" as="geometry">
            <Array as="points">
              <mxPoint y="420" />
              <mxPoint y="669" />
            </Array>
          </mxGeometry>
        </mxCell>
        <mxCell id="vcTBE_vuHNgua-nWtFjC-111" value="POST/comment/create" style="edgeLabel;html=1;align=center;verticalAlign=middle;resizable=0;points=[];" vertex="1" connectable="0" parent="vcTBE_vuHNgua-nWtFjC-110">
          <mxGeometry x="0.4028" y="-3" relative="1" as="geometry">
            <mxPoint x="30" y="-3" as="offset" />
          </mxGeometry>
        </mxCell>
        <mxCell id="vcTBE_vuHNgua-nWtFjC-142" style="edgeStyle=orthogonalEdgeStyle;rounded=0;orthogonalLoop=1;jettySize=auto;html=1;exitX=1;exitY=0.25;exitDx=0;exitDy=0;exitPerimeter=0;entryX=0;entryY=0;entryDx=0;entryDy=0;entryPerimeter=0;" edge="1" parent="1" source="vcTBE_vuHNgua-nWtFjC-5" target="vcTBE_vuHNgua-nWtFjC-10">
          <mxGeometry relative="1" as="geometry">
            <Array as="points">
              <mxPoint x="548" y="530" />
              <mxPoint x="1100" y="530" />
            </Array>
          </mxGeometry>
        </mxCell>
        <mxCell id="vcTBE_vuHNgua-nWtFjC-143" value="eliminar comentario" style="edgeLabel;html=1;align=center;verticalAlign=middle;resizable=0;points=[];" vertex="1" connectable="0" parent="vcTBE_vuHNgua-nWtFjC-142">
          <mxGeometry x="0.4112" relative="1" as="geometry">
            <mxPoint x="38" as="offset" />
          </mxGeometry>
        </mxCell>
        <mxCell id="vcTBE_vuHNgua-nWtFjC-144" style="edgeStyle=orthogonalEdgeStyle;rounded=0;orthogonalLoop=1;jettySize=auto;html=1;exitX=1;exitY=1;exitDx=0;exitDy=0;exitPerimeter=0;" edge="1" parent="1" source="vcTBE_vuHNgua-nWtFjC-4">
          <mxGeometry relative="1" as="geometry">
            <mxPoint x="1160" y="640" as="targetPoint" />
            <Array as="points">
              <mxPoint x="630" y="458" />
              <mxPoint x="630" y="350" />
              <mxPoint x="1160" y="350" />
              <mxPoint x="1160" y="640" />
            </Array>
          </mxGeometry>
        </mxCell>
        <mxCell id="vcTBE_vuHNgua-nWtFjC-145" value="update comentario" style="edgeLabel;html=1;align=center;verticalAlign=middle;resizable=0;points=[];" vertex="1" connectable="0" parent="vcTBE_vuHNgua-nWtFjC-144">
          <mxGeometry x="0.8354" y="3" relative="1" as="geometry">
            <mxPoint x="-63" y="-218" as="offset" />
          </mxGeometry>
        </mxCell>
        <mxCell id="vcTBE_vuHNgua-nWtFjC-146" style="edgeStyle=orthogonalEdgeStyle;rounded=0;orthogonalLoop=1;jettySize=auto;html=1;exitX=1;exitY=0.25;exitDx=0;exitDy=0;exitPerimeter=0;" edge="1" parent="1">
          <mxGeometry relative="1" as="geometry">
            <mxPoint x="548" y="279.5" as="sourcePoint" />
            <mxPoint x="1160" y="640" as="targetPoint" />
            <Array as="points">
              <mxPoint x="1160" y="280" />
              <mxPoint x="1160" y="640" />
            </Array>
          </mxGeometry>
        </mxCell>
        <mxCell id="vcTBE_vuHNgua-nWtFjC-148" value="solicitud de commentario por usuario" style="edgeLabel;html=1;align=center;verticalAlign=middle;resizable=0;points=[];" vertex="1" connectable="0" parent="vcTBE_vuHNgua-nWtFjC-146">
          <mxGeometry x="0.004" y="3" relative="1" as="geometry">
            <mxPoint x="24" y="3" as="offset" />
          </mxGeometry>
        </mxCell>
        <mxCell id="vcTBE_vuHNgua-nWtFjC-149" style="edgeStyle=orthogonalEdgeStyle;rounded=0;orthogonalLoop=1;jettySize=auto;html=1;exitX=1;exitY=0;exitDx=0;exitDy=0;exitPerimeter=0;entryX=1;entryY=0;entryDx=0;entryDy=0;entryPerimeter=0;" edge="1" parent="1" source="vcTBE_vuHNgua-nWtFjC-10" target="vcTBE_vuHNgua-nWtFjC-3">
          <mxGeometry relative="1" as="geometry">
            <Array as="points">
              <mxPoint x="1178" y="260" />
            </Array>
          </mxGeometry>
        </mxCell>
        <mxCell id="vcTBE_vuHNgua-nWtFjC-151" value="comentarios por usuario" style="edgeLabel;html=1;align=center;verticalAlign=middle;resizable=0;points=[];" vertex="1" connectable="0" parent="vcTBE_vuHNgua-nWtFjC-149">
          <mxGeometry x="0.0663" y="1" relative="1" as="geometry">
            <mxPoint x="40" y="-1" as="offset" />
          </mxGeometry>
        </mxCell>
        <mxCell id="vcTBE_vuHNgua-nWtFjC-153" value="comentarios por habitacion" style="edgeStyle=orthogonalEdgeStyle;rounded=0;orthogonalLoop=1;jettySize=auto;html=1;exitX=1;exitY=0;exitDx=0;exitDy=0;exitPerimeter=0;entryX=1;entryY=0;entryDx=0;entryDy=0;entryPerimeter=0;" edge="1" parent="1" source="vcTBE_vuHNgua-nWtFjC-10" target="vcTBE_vuHNgua-nWtFjC-1">
          <mxGeometry x="0.1292" relative="1" as="geometry">
            <Array as="points">
              <mxPoint x="1178" y="140" />
            </Array>
            <mxPoint as="offset" />
          </mxGeometry>
        </mxCell>
        <mxCell id="vcTBE_vuHNgua-nWtFjC-197" value="solicitud hoteles por tenantid" style="edgeStyle=orthogonalEdgeStyle;rounded=0;orthogonalLoop=1;jettySize=auto;html=1;entryX=0.25;entryY=0;entryDx=0;entryDy=0;entryPerimeter=0;" edge="1" parent="1" source="vcTBE_vuHNgua-nWtFjC-22" target="vcTBE_vuHNgua-nWtFjC-29">
          <mxGeometry relative="1" as="geometry" />
        </mxCell>
        <mxCell id="vcTBE_vuHNgua-nWtFjC-198" value="hoteles por tenant" style="edgeStyle=orthogonalEdgeStyle;rounded=0;orthogonalLoop=1;jettySize=auto;html=1;entryX=1;entryY=0.25;entryDx=0;entryDy=0;entryPerimeter=0;" edge="1" parent="1" source="vcTBE_vuHNgua-nWtFjC-29" target="vcTBE_vuHNgua-nWtFjC-22">
          <mxGeometry relative="1" as="geometry">
            <Array as="points">
              <mxPoint x="950" y="1040" />
            </Array>
          </mxGeometry>
        </mxCell>
        <mxCell id="vcTBE_vuHNgua-nWtFjC-199" value="solicitud hotel por tenant y nombre" style="edgeStyle=orthogonalEdgeStyle;rounded=0;orthogonalLoop=1;jettySize=auto;html=1;entryX=0.25;entryY=0;entryDx=0;entryDy=0;entryPerimeter=0;" edge="1" parent="1" source="vcTBE_vuHNgua-nWtFjC-23" target="vcTBE_vuHNgua-nWtFjC-29">
          <mxGeometry relative="1" as="geometry" />
        </mxCell>
        <mxCell id="vcTBE_vuHNgua-nWtFjC-200" value="hotel por tenant y nombre" style="edgeStyle=orthogonalEdgeStyle;rounded=0;orthogonalLoop=1;jettySize=auto;html=1;exitX=0.25;exitY=0;exitDx=0;exitDy=0;exitPerimeter=0;entryX=1;entryY=0.25;entryDx=0;entryDy=0;entryPerimeter=0;" edge="1" parent="1" source="vcTBE_vuHNgua-nWtFjC-29" target="vcTBE_vuHNgua-nWtFjC-23">
          <mxGeometry relative="1" as="geometry" />
        </mxCell>
        <mxCell id="vcTBE_vuHNgua-nWtFjC-201" value="update hotel" style="edgeStyle=orthogonalEdgeStyle;rounded=0;orthogonalLoop=1;jettySize=auto;html=1;entryX=0.25;entryY=0;entryDx=0;entryDy=0;entryPerimeter=0;" edge="1" parent="1" source="vcTBE_vuHNgua-nWtFjC-24" target="vcTBE_vuHNgua-nWtFjC-29">
          <mxGeometry relative="1" as="geometry" />
        </mxCell>
        <mxCell id="vcTBE_vuHNgua-nWtFjC-203" value="eliminar hotel" style="edgeStyle=orthogonalEdgeStyle;rounded=0;orthogonalLoop=1;jettySize=auto;html=1;entryX=0;entryY=0.75;entryDx=0;entryDy=0;entryPerimeter=0;" edge="1" parent="1" source="vcTBE_vuHNgua-nWtFjC-25" target="vcTBE_vuHNgua-nWtFjC-29">
          <mxGeometry relative="1" as="geometry" />
        </mxCell>
        <mxCell id="vcTBE_vuHNgua-nWtFjC-204" value="crear hotel" style="edgeStyle=orthogonalEdgeStyle;rounded=0;orthogonalLoop=1;jettySize=auto;html=1;entryX=0;entryY=0.75;entryDx=0;entryDy=0;entryPerimeter=0;" edge="1" parent="1" source="vcTBE_vuHNgua-nWtFjC-26" target="vcTBE_vuHNgua-nWtFjC-29">
          <mxGeometry x="-0.2094" relative="1" as="geometry">
            <Array as="points">
              <mxPoint x="830" y="1549" />
              <mxPoint x="830" y="1410" />
            </Array>
            <mxPoint as="offset" />
          </mxGeometry>
        </mxCell>
        <mxCell id="vcTBE_vuHNgua-nWtFjC-205" style="edgeStyle=orthogonalEdgeStyle;rounded=0;orthogonalLoop=1;jettySize=auto;html=1;entryX=0;entryY=0.75;entryDx=0;entryDy=0;entryPerimeter=0;" edge="1" parent="1" source="vcTBE_vuHNgua-nWtFjC-27" target="vcTBE_vuHNgua-nWtFjC-29">
          <mxGeometry relative="1" as="geometry">
            <Array as="points">
              <mxPoint x="830" y="1679" />
              <mxPoint x="830" y="1410" />
            </Array>
          </mxGeometry>
        </mxCell>
        <mxCell id="vcTBE_vuHNgua-nWtFjC-206" value="solicitud de informacion de hotel" style="edgeLabel;html=1;align=center;verticalAlign=middle;resizable=0;points=[];" vertex="1" connectable="0" parent="vcTBE_vuHNgua-nWtFjC-205">
          <mxGeometry x="-0.3871" y="-2" relative="1" as="geometry">
            <mxPoint x="-25" y="-2" as="offset" />
          </mxGeometry>
        </mxCell>
        <mxCell id="vcTBE_vuHNgua-nWtFjC-208" value="informacion de hotel" style="edgeStyle=orthogonalEdgeStyle;rounded=0;orthogonalLoop=1;jettySize=auto;html=1;exitX=0;exitY=0.75;exitDx=0;exitDy=0;exitPerimeter=0;entryX=1;entryY=0.25;entryDx=0;entryDy=0;entryPerimeter=0;" edge="1" parent="1" source="vcTBE_vuHNgua-nWtFjC-29" target="vcTBE_vuHNgua-nWtFjC-27">
          <mxGeometry x="0.4144" relative="1" as="geometry">
            <Array as="points">
              <mxPoint x="830" y="1410" />
              <mxPoint x="830" y="1660" />
            </Array>
            <mxPoint as="offset" />
          </mxGeometry>
        </mxCell>
        <mxCell id="vcTBE_vuHNgua-nWtFjC-209" style="edgeStyle=orthogonalEdgeStyle;rounded=0;orthogonalLoop=1;jettySize=auto;html=1;entryX=0;entryY=0.75;entryDx=0;entryDy=0;entryPerimeter=0;" edge="1" parent="1" source="vcTBE_vuHNgua-nWtFjC-76" target="vcTBE_vuHNgua-nWtFjC-29">
          <mxGeometry relative="1" as="geometry">
            <Array as="points">
              <mxPoint x="830" y="1809" />
              <mxPoint x="830" y="1410" />
            </Array>
          </mxGeometry>
        </mxCell>
        <mxCell id="vcTBE_vuHNgua-nWtFjC-211" value="solicitud de informacion de hotel por ubicacion" style="edgeLabel;html=1;align=center;verticalAlign=middle;resizable=0;points=[];" vertex="1" connectable="0" parent="vcTBE_vuHNgua-nWtFjC-209">
          <mxGeometry x="-0.5509" y="-3" relative="1" as="geometry">
            <mxPoint x="-21" y="-3" as="offset" />
          </mxGeometry>
        </mxCell>
        <mxCell id="vcTBE_vuHNgua-nWtFjC-213" value="informacion de hotel por ubicacion" style="edgeStyle=orthogonalEdgeStyle;rounded=0;orthogonalLoop=1;jettySize=auto;html=1;exitX=0;exitY=0.75;exitDx=0;exitDy=0;exitPerimeter=0;entryX=1;entryY=0.25;entryDx=0;entryDy=0;entryPerimeter=0;" edge="1" parent="1" source="vcTBE_vuHNgua-nWtFjC-29" target="vcTBE_vuHNgua-nWtFjC-76">
          <mxGeometry x="0.6221" relative="1" as="geometry">
            <Array as="points">
              <mxPoint x="830" y="1410" />
              <mxPoint x="830" y="1790" />
            </Array>
            <mxPoint as="offset" />
          </mxGeometry>
        </mxCell>
        <mxCell id="vcTBE_vuHNgua-nWtFjC-214" style="edgeStyle=orthogonalEdgeStyle;rounded=0;orthogonalLoop=1;jettySize=auto;html=1;entryX=0;entryY=0.75;entryDx=0;entryDy=0;entryPerimeter=0;" edge="1" parent="1" source="vcTBE_vuHNgua-nWtFjC-77" target="vcTBE_vuHNgua-nWtFjC-29">
          <mxGeometry relative="1" as="geometry">
            <Array as="points">
              <mxPoint x="830" y="1929" />
              <mxPoint x="830" y="1410" />
            </Array>
          </mxGeometry>
        </mxCell>
        <mxCell id="vcTBE_vuHNgua-nWtFjC-215" value="solicitud de todos los hoteles" style="edgeLabel;html=1;align=center;verticalAlign=middle;resizable=0;points=[];" vertex="1" connectable="0" parent="vcTBE_vuHNgua-nWtFjC-214">
          <mxGeometry x="-0.6583" y="4" relative="1" as="geometry">
            <mxPoint y="4" as="offset" />
          </mxGeometry>
        </mxCell>
        <mxCell id="vcTBE_vuHNgua-nWtFjC-216" style="edgeStyle=orthogonalEdgeStyle;rounded=0;orthogonalLoop=1;jettySize=auto;html=1;exitX=0;exitY=0.75;exitDx=0;exitDy=0;exitPerimeter=0;entryX=1;entryY=0.25;entryDx=0;entryDy=0;entryPerimeter=0;" edge="1" parent="1" source="vcTBE_vuHNgua-nWtFjC-29" target="vcTBE_vuHNgua-nWtFjC-77">
          <mxGeometry relative="1" as="geometry">
            <Array as="points">
              <mxPoint x="830" y="1410" />
              <mxPoint x="830" y="1910" />
            </Array>
          </mxGeometry>
        </mxCell>
        <mxCell id="vcTBE_vuHNgua-nWtFjC-217" value="todos los hoteles" style="edgeLabel;html=1;align=center;verticalAlign=middle;resizable=0;points=[];" vertex="1" connectable="0" parent="vcTBE_vuHNgua-nWtFjC-216">
          <mxGeometry x="0.7068" y="1" relative="1" as="geometry">
            <mxPoint x="24" as="offset" />
          </mxGeometry>
        </mxCell>
        <mxCell id="vcTBE_vuHNgua-nWtFjC-218" style="edgeStyle=orthogonalEdgeStyle;rounded=0;orthogonalLoop=1;jettySize=auto;html=1;entryX=0;entryY=0.5;entryDx=0;entryDy=0;entryPerimeter=0;" edge="1" parent="1" source="vcTBE_vuHNgua-nWtFjC-28" target="vcTBE_vuHNgua-nWtFjC-22">
          <mxGeometry relative="1" as="geometry">
            <Array as="points">
              <mxPoint x="20" y="1344" />
              <mxPoint x="20" y="1059" />
            </Array>
          </mxGeometry>
        </mxCell>
        <mxCell id="vcTBE_vuHNgua-nWtFjC-233" value="GET/hotels/tenant/{tenant_id}" style="edgeLabel;html=1;align=center;verticalAlign=middle;resizable=0;points=[];" vertex="1" connectable="0" parent="vcTBE_vuHNgua-nWtFjC-218">
          <mxGeometry x="0.2695" y="3" relative="1" as="geometry">
            <mxPoint x="-1" as="offset" />
          </mxGeometry>
        </mxCell>
        <mxCell id="vcTBE_vuHNgua-nWtFjC-219" style="edgeStyle=orthogonalEdgeStyle;rounded=0;orthogonalLoop=1;jettySize=auto;html=1;entryX=0;entryY=0.5;entryDx=0;entryDy=0;entryPerimeter=0;" edge="1" parent="1" source="vcTBE_vuHNgua-nWtFjC-28" target="vcTBE_vuHNgua-nWtFjC-23">
          <mxGeometry relative="1" as="geometry">
            <Array as="points">
              <mxPoint x="20" y="1344" />
              <mxPoint x="20" y="1179" />
            </Array>
          </mxGeometry>
        </mxCell>
        <mxCell id="vcTBE_vuHNgua-nWtFjC-232" value="GET/hotels/tenant" style="edgeLabel;html=1;align=center;verticalAlign=middle;resizable=0;points=[];" vertex="1" connectable="0" parent="vcTBE_vuHNgua-nWtFjC-219">
          <mxGeometry x="0.1505" y="-3" relative="1" as="geometry">
            <mxPoint x="-1" as="offset" />
          </mxGeometry>
        </mxCell>
        <mxCell id="vcTBE_vuHNgua-nWtFjC-221" style="edgeStyle=orthogonalEdgeStyle;rounded=0;orthogonalLoop=1;jettySize=auto;html=1;entryX=0;entryY=0.5;entryDx=0;entryDy=0;entryPerimeter=0;" edge="1" parent="1" source="vcTBE_vuHNgua-nWtFjC-28" target="vcTBE_vuHNgua-nWtFjC-25">
          <mxGeometry relative="1" as="geometry">
            <Array as="points">
              <mxPoint x="20" y="1344" />
              <mxPoint x="20" y="1419" />
            </Array>
          </mxGeometry>
        </mxCell>
        <mxCell id="vcTBE_vuHNgua-nWtFjC-227" value="DELETE/hotel/{tenant_id}/{hotel_id}" style="edgeLabel;html=1;align=center;verticalAlign=middle;resizable=0;points=[];" vertex="1" connectable="0" parent="vcTBE_vuHNgua-nWtFjC-221">
          <mxGeometry x="0.0991" y="3" relative="1" as="geometry">
            <mxPoint as="offset" />
          </mxGeometry>
        </mxCell>
        <mxCell id="vcTBE_vuHNgua-nWtFjC-222" style="edgeStyle=orthogonalEdgeStyle;rounded=0;orthogonalLoop=1;jettySize=auto;html=1;entryX=0;entryY=0.5;entryDx=0;entryDy=0;entryPerimeter=0;" edge="1" parent="1" source="vcTBE_vuHNgua-nWtFjC-28" target="vcTBE_vuHNgua-nWtFjC-26">
          <mxGeometry relative="1" as="geometry">
            <Array as="points">
              <mxPoint x="20" y="1344" />
              <mxPoint x="20" y="1549" />
            </Array>
          </mxGeometry>
        </mxCell>
        <mxCell id="vcTBE_vuHNgua-nWtFjC-226" value="POST/hotel/create" style="edgeLabel;html=1;align=center;verticalAlign=middle;resizable=0;points=[];fontStyle=0;fontSize=11;" vertex="1" connectable="0" parent="vcTBE_vuHNgua-nWtFjC-222">
          <mxGeometry x="0.2521" y="5" relative="1" as="geometry">
            <mxPoint x="20" y="5" as="offset" />
          </mxGeometry>
        </mxCell>
        <mxCell id="vcTBE_vuHNgua-nWtFjC-223" style="edgeStyle=orthogonalEdgeStyle;rounded=0;orthogonalLoop=1;jettySize=auto;html=1;entryX=0;entryY=0.5;entryDx=0;entryDy=0;entryPerimeter=0;" edge="1" parent="1">
          <mxGeometry relative="1" as="geometry">
            <mxPoint x="-101" y="1344" as="sourcePoint" />
            <mxPoint x="471" y="1678.9999999999995" as="targetPoint" />
            <Array as="points">
              <mxPoint x="21" y="1344" />
              <mxPoint x="21" y="1679" />
            </Array>
          </mxGeometry>
        </mxCell>
        <mxCell id="vcTBE_vuHNgua-nWtFjC-229" value="GET/hotel/{tenant_id}/{hotel_id}" style="edgeLabel;html=1;align=center;verticalAlign=middle;resizable=0;points=[];" vertex="1" connectable="0" parent="vcTBE_vuHNgua-nWtFjC-223">
          <mxGeometry x="0.3404" relative="1" as="geometry">
            <mxPoint x="32" as="offset" />
          </mxGeometry>
        </mxCell>
        <mxCell id="vcTBE_vuHNgua-nWtFjC-224" style="edgeStyle=orthogonalEdgeStyle;rounded=0;orthogonalLoop=1;jettySize=auto;html=1;entryX=0;entryY=0.5;entryDx=0;entryDy=0;entryPerimeter=0;" edge="1" parent="1" source="vcTBE_vuHNgua-nWtFjC-28" target="vcTBE_vuHNgua-nWtFjC-76">
          <mxGeometry relative="1" as="geometry">
            <Array as="points">
              <mxPoint x="20" y="1344" />
              <mxPoint x="20" y="1809" />
            </Array>
          </mxGeometry>
        </mxCell>
        <mxCell id="vcTBE_vuHNgua-nWtFjC-230" value="GET//hotels/location" style="edgeLabel;html=1;align=center;verticalAlign=middle;resizable=0;points=[];" vertex="1" connectable="0" parent="vcTBE_vuHNgua-nWtFjC-224">
          <mxGeometry x="0.4439" y="-1" relative="1" as="geometry">
            <mxPoint x="-1" as="offset" />
          </mxGeometry>
        </mxCell>
        <mxCell id="vcTBE_vuHNgua-nWtFjC-225" style="edgeStyle=orthogonalEdgeStyle;rounded=0;orthogonalLoop=1;jettySize=auto;html=1;entryX=0;entryY=0.5;entryDx=0;entryDy=0;entryPerimeter=0;" edge="1" parent="1" source="vcTBE_vuHNgua-nWtFjC-28" target="vcTBE_vuHNgua-nWtFjC-77">
          <mxGeometry relative="1" as="geometry">
            <Array as="points">
              <mxPoint x="20" y="1344" />
              <mxPoint x="20" y="1929" />
            </Array>
          </mxGeometry>
        </mxCell>
        <mxCell id="vcTBE_vuHNgua-nWtFjC-231" value="GET/hotels" style="edgeLabel;html=1;align=center;verticalAlign=middle;resizable=0;points=[];" vertex="1" connectable="0" parent="vcTBE_vuHNgua-nWtFjC-225">
          <mxGeometry x="0.4776" y="1" relative="1" as="geometry">
            <mxPoint x="-1" as="offset" />
          </mxGeometry>
        </mxCell>
      </root>
    </mxGraphModel>
  </diagram>
</mxfile>
